HIERARCHY
ROOT Hips
{
	OFFSET -3.958830 18.904000 13.208200
	CHANNELS 6 Xposition Yposition Zposition Zrotation Yrotation Xrotation 
	JOINT LHipJoint
	{
		OFFSET 0.000000 0.000000 0.000000
		CHANNELS 3 Zrotation Yrotation Xrotation
		JOINT LeftUpLeg
		{
			OFFSET 1.800000 -1.400000 0.085000
			CHANNELS 3 Zrotation Yrotation Xrotation
			JOINT LeftLeg
			{
				OFFSET 2.215000 -6.000000 0.000000
				CHANNELS 3 Zrotation Yrotation Xrotation
				JOINT LeftFoot
				{
					OFFSET 2.500000 -6.900000 0.000000
					CHANNELS 3 Zrotation Yrotation Xrotation
					JOINT LeftToeBase
					{
						OFFSET 0.200000 -0.500000 1.950000
						CHANNELS 3 Zrotation Yrotation Xrotation
						End Site
						{
							OFFSET 0.000000 0.000000 0.000000
						}
					}
				}
			}
		}
	}
	JOINT RHipJoint
	{
		OFFSET 0.000000 0.000000 0.000000
		CHANNELS 3 Zrotation Yrotation Xrotation
		JOINT RightUpLeg
		{
			OFFSET -1.800000 -1.400000 0.085000
			CHANNELS 3 Zrotation Yrotation Xrotation
			JOINT RightLeg
			{
				OFFSET -2.215000 -6.000000 0.000000
				CHANNELS 3 Zrotation Yrotation Xrotation
				JOINT RightFoot
				{
					OFFSET -2.500000 -6.900000 0.000000
					CHANNELS 3 Zrotation Yrotation Xrotation
					JOINT RightToeBase
					{
						OFFSET -0.200000 -0.500000 1.950000
						CHANNELS 3 Zrotation Yrotation Xrotation
						End Site
						{
							OFFSET 0.000000 0.000000 0.000000
						}
					}
				}
			}
		}
	}
	JOINT LowerBack
	{
		OFFSET 0.000000 0.000000 0.000000
		CHANNELS 3 Zrotation Yrotation Xrotation
		JOINT Spine
		{
			OFFSET -0.087000 1.940000 -0.288900
			CHANNELS 3 Zrotation Yrotation Xrotation
			JOINT Spine1
			{
				OFFSET 0.000000 1.950000 0.060000
				CHANNELS 3 Zrotation Yrotation Xrotation
				JOINT Neck
				{
					OFFSET 0.000000 0.000000 0.000000
					CHANNELS 3 Zrotation Yrotation Xrotation
					JOINT Neck1
					{
						OFFSET 0.000000 1.600000 0.340000
						CHANNELS 3 Zrotation Yrotation Xrotation
						JOINT Head
						{
							OFFSET 0.000000 1.667000 -0.240000
							CHANNELS 3 Zrotation Yrotation Xrotation
							End Site
							{
								OFFSET 0.000000 0.000000 0.000000
							}
						}
					}
				}
				JOINT LeftShoulder
				{
					OFFSET 0.000000 0.000000 0.000000
					CHANNELS 3 Zrotation Yrotation Xrotation
					JOINT LeftArm
					{
						OFFSET 2.700000 1.550000 -0.730000
						CHANNELS 3 Zrotation Yrotation Xrotation
						JOINT LeftForeArm
						{
							OFFSET 5.450000 0.000000 0.000000
							CHANNELS 3 Zrotation Yrotation Xrotation
							JOINT LeftHand
							{
								OFFSET 3.450000 0.000000 0.000000
								CHANNELS 3 Zrotation Yrotation Xrotation
								JOINT LeftHandIndex1
								{
									OFFSET 0.750000 0.000000 0.000000
									CHANNELS 3 Zrotation Yrotation Xrotation
									End Site
									{
										OFFSET 0.000000 0.000000 0.000000
									}
								}
							}
						}
					}
				}
				JOINT RightShoulder
				{
					OFFSET 0.000000 0.000000 0.000000
					CHANNELS 3 Zrotation Yrotation Xrotation
					JOINT RightArm
					{
						OFFSET -2.700000 1.550000 -0.730000
						CHANNELS 3 Zrotation Yrotation Xrotation
						JOINT RightForeArm
						{
							OFFSET -5.450000 0.000000 0.000000
							CHANNELS 3 Zrotation Yrotation Xrotation
							JOINT RightHand
							{
								OFFSET -3.450000 0.000000 0.000000
								CHANNELS 3 Zrotation Yrotation Xrotation
								JOINT RightHandIndex1
								{
									OFFSET -0.750000 0.000000 0.000000
									CHANNELS 3 Zrotation Yrotation Xrotation
									End Site
									{
										OFFSET 0.000000 0.000000 0.000000
									}
								}
							}
						}
					}
				}
			}
		}
	}
}
MOTION
Frames: 12
Frame Time: 0.016667
1.362360 16.153950 -7.881600 10.700034 32.305272 0.129533 -15.310012 13.699347 2.733447 10.760634 -1.565051 -9.468491 -8.985258 11.588216 31.943821 0.674076 6.816078 2.089465 -0.012560 -0.076860 0.063820 18.044753 -10.701070 3.222515 2.171550 5.512739 -25.312829 -0.555816 -5.581187 40.647765 -0.438469 -5.056996 2.466107 -0.140190 -0.127160 0.015500 -3.891298 -2.044950 -7.860822 6.116000 -5.975323 11.269622 -12.587592 -4.362411 -0.426049 5.253058 -5.368259 -10.072894 -12.071772 -0.559615 35.479541 -3.671050 -2.617650 -4.817670 -22.998114 -2.709064 2.506052 -52.593510 5.938826 -6.989802 0.771843 -7.354776 -0.440761 -3.617251 2.924370 0.157270 -0.152850 0.105070 -0.044220 12.011679 7.440833 7.718419 48.944127 -5.470616 -11.956591 30.172074 37.587471 6.639583 2.595599 -1.483694 0.038280 -0.043150 -0.003340 -0.012780 
1.379840 16.155650 -7.846840 10.777305 30.715276 0.258863 -15.312851 13.776778 2.709332 11.532053 -1.330683 -8.974624 -9.296259 11.225687 29.688539 0.625480 6.539137 2.184664 -0.004130 -0.064170 0.060990 18.042429 -10.640098 3.214133 2.218812 5.535470 -25.384394 -0.912266 -5.466226 40.887882 -0.444825 -5.071037 2.461321 -0.135700 -0.126970 0.018620 -3.819499 -2.273092 -7.824934 6.136339 -6.075100 11.059517 -12.276227 -4.482948 -0.473959 5.248085 -6.290007 -10.210240 -13.871030 0.231396 34.750677 -3.832320 -2.167910 -5.041820 -22.794328 -2.552190 2.364835 -52.943544 5.255687 -6.859936 1.815554 -8.117943 -0.490108 -3.612052 2.945283 0.152270 -0.155070 0.106380 -0.037990 11.962003 7.876261 7.870184 48.151460 -5.709472 -11.820350 27.479897 36.447997 5.770324 2.595401 -1.460101 0.045940 -0.046490 -0.007210 -0.006740 
1.406700 16.138410 -7.769040 10.365501 27.899019 0.160887 -15.307155 13.819406 2.638265 14.147756 -0.982873 -8.294232 -9.667577 10.559806 25.489943 0.537389 6.112499 2.331591 0.022090 -0.015550 0.057620 18.068771 -10.449054 3.255997 2.167801 5.964160 -25.761684 0.251005 -6.317918 42.686014 -0.525872 -5.446365 2.333561 -0.105270 -0.112480 0.020100 -3.736563 -2.604218 -7.802211 6.370911 -6.537400 10.728271 -12.260960 -4.869753 -0.092503 5.251626 -7.056812 -10.422396 -15.235495 1.376839 33.069187 -3.288080 -1.320420 -5.740630 -22.744267 -3.508080 2.418700 -51.539635 3.235877 -5.197282 1.539345 -5.366498 -0.314354 -3.636729 2.973731 0.131280 -0.147190 0.104930 -0.018650 12.054208 9.106220 8.012922 46.424299 -5.001916 -11.113150 20.736373 34.370164 3.955705 2.586613 -1.408969 0.055520 -0.038460 -0.021990 0.008990 
1.425180 16.153580 -7.679900 10.459140 24.624666 0.388678 -15.324664 13.745143 2.743112 17.689354 -0.701385 -6.773604 -11.627523 10.403000 20.453438 0.517056 6.040452 2.368672 0.017620 -0.017290 0.045500 18.081704 -10.189888 3.210773 1.112664 6.173566 -25.884090 2.865238 -7.883194 43.656439 -0.592578 -5.829849 2.209055 -0.098050 -0.091360 0.016590 -3.577440 -2.954268 -7.856357 6.139248 -6.598059 9.889139 -12.192187 -4.829831 0.726461 5.377455 -7.718804 -11.329727 -16.936735 2.586653 32.559026 -3.454350 -0.350480 -5.325480 -22.292488 -5.684938 2.975423 -50.065590 0.868749 -3.342420 0.870764 -2.586827 -0.159880 -3.667038 2.981745 0.128570 -0.132170 0.092530 -0.012920 11.632586 11.712140 8.782422 45.812989 -4.059727 -9.949828 14.158833 29.415263 2.079260 2.596476 -1.318286 0.042630 -0.025500 -0.013720 0.008660 
1.444140 16.212060 -7.596010 10.220300 21.236328 0.195909 -15.301139 14.152649 2.408328 16.324497 -0.602467 -6.237077 -5.654164 8.579592 21.769136 0.407151 5.397909 2.591964 0.028610 -0.005380 0.038450 18.077833 -10.262322 3.354625 4.577042 6.197088 -24.187796 0.112939 -6.070045 42.131369 -0.541241 -5.328555 2.398655 -0.106010 -0.113190 0.001760 -3.558794 -3.289493 -7.696961 6.962966 -6.009854 9.460992 -11.689541 -4.199767 0.453208 5.635617 -9.454837 -12.277789 -21.333779 3.892381 32.630767 -3.254090 -0.407130 -5.321430 -21.123588 -6.339254 2.786019 -53.022700 -2.440837 -2.148155 3.566347 -1.712073 -0.074678 -3.642357 3.000619 0.148140 -0.170390 0.109790 -0.004170 10.374024 13.870233 9.774312 48.392170 -3.718666 -9.407872 6.082921 24.130828 0.491980 2.650902 -1.237570 0.054240 -0.025290 -0.022620 0.018490 
1.487780 16.273720 -7.502860 11.035785 18.811628 0.125003 -15.312463 14.328315 2.422928 18.232881 -0.502563 -3.208016 -4.395285 7.956827 18.842962 0.410639 5.322191 2.654683 0.028830 -0.001480 0.037930 18.046958 -10.298586 3.098978 1.744328 5.171633 -23.620810 2.059946 -7.245151 41.289304 -0.526305 -5.386479 2.371966 -0.098790 -0.102930 0.002220 -3.442739 -3.634015 -7.552665 6.658556 -6.544874 8.166072 -12.868578 -4.513327 1.930539 6.094548 -9.935361 -13.299846 -23.120954 4.817251 32.208065 -3.758260 0.336870 -5.036050 -19.979435 -8.194694 3.448621 -51.589801 -4.504371 -1.050347 5.693646 -1.335173 -0.060909 -3.654358 3.019521 0.143860 -0.161410 0.107230 -0.003120 8.556534 15.970360 10.524910 48.149128 -2.643997 -7.805062 3.073479 18.409214 0.084897 2.704999 -1.206406 0.049970 -0.014770 -0.017460 0.019120 
1.423270 16.342520 -7.379670 11.048077 13.072395 -0.325841 -15.320550 14.425150 2.388645 17.273291 -0.332302 -0.396975 -3.044834 7.539986 18.224284 0.405998 5.287314 2.692229 0.037130 0.004760 0.085580 18.038835 -10.281314 3.174757 3.773392 5.164818 -20.909032 2.667668 -7.444468 41.301439 -0.602477 -5.484889 2.350172 -0.092200 -0.126600 -0.000600 -3.273742 -3.745393 -7.573621 4.904453 -6.026461 7.552694 -13.083915 -3.954949 2.262940 6.302425 -8.947083 -14.186101 -21.589742 6.447231 33.459796 -4.048210 3.135360 -5.765560 -19.363368 -9.408501 4.398787 -45.563453 -3.705590 -0.847087 6.201932 -1.799682 -0.099016 -3.654544 2.984215 0.188270 -0.164850 0.135520 -0.022680 7.755024 16.628647 10.832902 45.118311 -2.304004 -6.463127 3.217537 15.326289 0.187738 2.730168 -1.151677 0.027890 -0.007000 -0.021050 -0.020270 
1.442880 16.484420 -7.313620 10.793585 3.657131 -1.121473 -15.334713 14.478084 2.534056 15.542133 0.271307 4.832307 -3.489046 7.756747 16.746858 0.525011 5.521735 2.638131 0.054260 0.049110 0.123710 18.081152 -10.193345 3.115248 7.893125 4.383829 -15.862594 -3.713620 -3.762419 37.566338 -0.531983 -4.653312 2.659295 -0.076690 -0.157230 -0.021280 -3.107537 -3.989125 -7.445130 5.633782 -6.174303 4.809649 -13.347623 -3.759319 5.845727 7.507354 -9.143402 -16.955970 -24.214655 11.706469 37.047531 -4.036610 7.739150 -5.226840 -16.184473 -14.210854 7.838493 -49.586363 -2.627835 -0.469898 9.383188 -0.832829 -0.016685 -3.594782 3.003988 0.232450 -0.185780 0.187260 -0.033510 2.605915 22.582416 11.212626 46.756587 6.501729 -2.851386 3.283750 6.609792 0.262337 2.862493 -1.095750 0.018540 0.014980 -0.031960 -0.042840 
1.464050 16.672280 -7.238020 11.340061 -1.837597 -0.788003 -15.264916 14.442060 2.661759 13.071400 0.684833 5.940628 -4.223439 7.782767 16.236455 0.511803 5.471982 2.634738 0.078090 0.077350 0.158320 18.142065 -10.406334 2.966292 7.689660 2.522486 -11.286425 -4.729926 -2.977572 31.211233 -0.454625 -3.979217 2.900153 -0.064370 -0.196050 -0.022880 -3.193257 -3.760753 -7.329952 6.564908 -4.095263 3.246107 -14.017521 -1.528815 5.610996 7.628248 -9.079349 -17.646284 -26.151247 12.625474 39.484678 -4.432260 8.101500 -6.517920 -17.481137 -14.392869 7.150592 -45.371881 -5.383202 0.227441 11.461474 -2.324094 -0.375754 -3.590209 2.957688 0.280620 -0.215700 0.227190 -0.054660 3.858588 22.785125 12.231753 45.558445 3.358795 -3.875245 -3.544331 9.110151 0.047201 2.801918 -1.094026 0.020310 0.032380 -0.024050 -0.063240 
1.459590 16.795970 -7.150680 12.635350 -3.930257 -1.127291 -15.489011 14.293032 3.130871 15.573333 0.977938 12.572205 -9.599964 8.917585 9.936153 0.756103 6.404250 2.385198 0.092080 0.111490 0.150560 18.022309 -10.016124 2.505708 4.738634 1.751156 -10.793698 -1.870157 -3.915821 27.936355 -0.363791 -3.695317 2.996601 -0.009410 -0.140940 -0.017400 -2.694945 -4.494591 -7.182155 3.812976 -6.145621 0.589782 -12.812824 -3.176141 9.976294 6.932089 -9.546601 -18.744969 -27.468185 14.888137 35.761557 -4.236540 10.430460 -7.224070 -13.215703 -16.778686 9.640578 -45.012330 -4.981518 0.523002 11.188010 -7.616965 -0.946785 -3.537025 3.000862 0.258370 -0.167190 0.197520 -0.043380 1.263523 24.926220 12.205786 41.413785 7.080781 -2.689035 -3.554969 11.297863 -0.074794 2.725089 -1.112007 -0.009430 0.065310 -0.011360 -0.065570 
1.469220 16.921150 -7.084840 14.668071 -1.845419 -0.088185 -15.693039 13.974444 3.755476 18.276210 0.663490 15.259696 -17.213594 9.158276 2.058698 1.005247 7.229824 2.160011 0.091510 0.104200 0.132060 17.883950 -9.714391 2.023896 -0.263271 0.873413 -11.596864 3.634389 -5.878109 26.023575 -0.302499 -3.741125 2.974627 0.008940 -0.097460 -0.004620 -2.256555 -4.976187 -7.252162 0.011972 -6.233312 -0.754168 -11.959046 -2.924114 10.653061 5.873874 -9.248470 -18.365100 -26.027382 12.411050 32.842077 -3.419060 8.545140 -7.207320 -9.143467 -15.830287 8.399151 -41.426805 -10.761955 2.657890 9.872364 -6.496685 -0.751319 -3.623816 3.001063 0.219800 -0.129880 0.153900 -0.033270 -0.632813 23.196041 12.719806 41.651394 2.379216 -4.045665 -3.292894 13.909295 -0.098232 2.645734 -1.170857 -0.017230 0.066560 -0.003720 -0.054990 
1.445770 17.070160 -7.003610 14.185530 -7.094819 -0.034825 -15.664056 13.908200 3.711167 13.497870 1.482769 17.935272 -13.388725 7.727825 -1.016800 0.977572 6.748152 2.330017 0.065560 0.081710 0.119090 17.969490 -9.698975 2.186247 2.333144 0.150676 -7.642767 -0.817130 -3.616800 18.605573 -0.227648 -3.083420 3.240959 -0.001170 -0.078600 -0.010640 -2.368804 -4.864763 -7.137995 1.507017 -4.616643 -2.783371 -12.180832 -0.987344 11.895824 5.783699 -9.090922 -19.518297 -26.938726 12.901273 33.667303 -3.549300 9.206470 -5.689030 -6.682008 -16.786147 8.771971 -37.750448 -12.821821 3.178385 8.631779 -10.669326 -0.898598 -3.601368 2.978757 0.204450 -0.110230 0.141970 -0.036110 -2.688854 24.122831 13.693051 40.825750 0.296936 -4.259214 -3.409155 13.826498 -0.033963 2.633493 -1.174006 -0.027740 0.070520 0.004850 -0.053220 
